<svg data-v-d3f97b9e="" xmlns="http://www.w3.org/2000/svg" viewBox="0 0 544 90"><!----><!----><!----><g data-v-d3f97b9e="" id="b7e7bbc8-e674-4407-8a30-993424c29898" fill="#000000" transform="matrix(3.9324116706848145,0,0,3.9324116706848145,123.05023956298828,7.2887864112854)"><path d="M4.02 9.48L4.02 11.33L4.02 11.33Q4.02 11.86 4.07 12.18L4.07 12.18L4.07 12.18Q4.12 12.50 4.26 12.68L4.26 12.68L4.26 12.68Q4.40 12.87 4.66 12.94L4.66 12.94L4.66 12.94Q4.91 13.01 5.35 13.02L5.35 13.02L5.35 13.58L0.49 13.58L0.49 13.02L0.49 13.02Q0.95 13.01 1.25 12.94L1.25 12.94L1.25 12.94Q1.54 12.87 1.69 12.70L1.69 12.70L1.69 12.70Q1.85 12.53 1.90 12.22L1.90 12.22L1.90 12.22Q1.96 11.91 1.96 11.42L1.96 11.42L1.96 4.96L1.96 4.96Q1.96 4.48 1.91 4.17L1.91 4.17L1.91 4.17Q1.86 3.86 1.72 3.70L1.72 3.70L1.72 3.70Q1.58 3.53 1.32 3.46L1.32 3.46L1.32 3.46Q1.06 3.39 0.64 3.36L0.64 3.36L0.64 2.80L5.47 2.80L5.47 3.36L5.47 3.36Q5.00 3.37 4.71 3.44L4.71 3.44L4.71 3.44Q4.42 3.51 4.27 3.70L4.27 3.70L4.27 3.70Q4.12 3.88 4.07 4.20L4.07 4.20L4.07 4.20Q4.02 4.52 4.02 5.05L4.02 5.05L4.02 8.16L7.64 4.27L7.64 4.27Q7.97 3.92 7.97 3.68L7.97 3.68L7.97 3.68Q7.97 3.53 7.76 3.44L7.76 3.44L7.76 3.44Q7.56 3.36 7.01 3.36L7.01 3.36L7.01 2.80L10.84 2.80L10.84 3.35L10.84 3.35Q10.53 3.36 10.30 3.40L10.30 3.40L10.30 3.40Q10.07 3.44 9.84 3.58L9.84 3.58L9.84 3.58Q9.60 3.72 9.32 3.98L9.32 3.98L9.32 3.98Q9.03 4.24 8.61 4.68L8.61 4.68L6.12 7.28L10.23 12.29L10.23 12.29Q10.53 12.66 10.88 12.82L10.88 12.82L10.88 12.82Q11.24 12.99 11.80 13.02L11.80 13.02L11.80 13.58L6.62 13.58L6.62 13.02L6.62 13.02Q7.20 13.01 7.45 12.92L7.45 12.92L7.45 12.92Q7.70 12.84 7.70 12.64L7.70 12.64L7.70 12.64Q7.70 12.57 7.68 12.51L7.68 12.51L7.68 12.51Q7.66 12.45 7.61 12.36L7.61 12.36L7.61 12.36Q7.56 12.26 7.46 12.13L7.46 12.13L7.46 12.13Q7.36 12.00 7.20 11.80L7.20 11.80L4.72 8.75L4.02 9.48ZM17.61 9.06L14.41 15.78L14.41 15.78Q14.25 16.09 14.02 16.35L14.02 16.35L14.02 16.35Q13.79 16.62 13.50 16.81L13.50 16.81L13.50 16.81Q13.22 17.00 12.91 17.11L12.91 17.11L12.91 17.11Q12.60 17.22 12.29 17.22L12.29 17.22L12.29 17.22Q11.83 17.22 11.55 17.00L11.55 17.00L11.55 17.00Q11.27 16.77 11.27 16.39L11.27 16.39L11.27 16.39Q11.27 16.04 11.52 15.85L11.52 15.85L11.52 15.85Q11.76 15.65 12.31 15.61L12.31 15.61L12.31 15.61Q13.55 15.51 13.92 14.83L13.92 14.83L14.29 14.10L11.82 7.97L11.82 7.97Q11.65 7.56 11.53 7.32L11.53 7.32L11.53 7.32Q11.41 7.08 11.27 6.95L11.27 6.95L11.27 6.95Q11.13 6.82 10.95 6.78L10.95 6.78L10.95 6.78Q10.77 6.73 10.50 6.72L10.50 6.72L10.50 6.16L14.74 6.16L14.74 6.72L14.74 6.72Q14.20 6.72 13.98 6.83L13.98 6.83L13.98 6.83Q13.76 6.93 13.76 7.21L13.76 7.21L13.76 7.21Q13.76 7.32 13.80 7.47L13.80 7.47L13.80 7.47Q13.83 7.62 13.89 7.77L13.89 7.77L15.32 11.86L15.37 11.86L16.58 9.13L16.58 9.13Q16.76 8.69 16.88 8.41L16.88 8.41L16.88 8.41Q17.01 8.12 17.07 7.92L17.07 7.92L17.07 7.92Q17.14 7.71 17.16 7.59L17.16 7.59L17.16 7.59Q17.19 7.46 17.19 7.34L17.19 7.34L17.19 7.34Q17.19 6.97 16.99 6.85L16.99 6.85L16.99 6.85Q16.79 6.72 16.17 6.72L16.17 6.72L16.17 6.16L19.54 6.16L19.54 6.72L19.54 6.72Q19.26 6.72 19.07 6.80L19.07 6.80L19.07 6.80Q18.87 6.87 18.67 7.11L18.67 7.11L18.67 7.11Q18.47 7.35 18.22 7.82L18.22 7.82L18.22 7.82Q17.98 8.29 17.61 9.06L17.61 9.06ZM22.58 9.63L22.58 10.51L22.58 10.51Q22.58 11.03 22.73 11.47L22.73 11.47L22.73 11.47Q22.88 11.91 23.13 12.24L23.13 12.24L23.13 12.24Q23.38 12.56 23.73 12.74L23.73 12.74L23.73 12.74Q24.08 12.92 24.50 12.92L24.50 12.92L24.50 12.92Q25.34 12.92 25.77 12.15L25.77 12.15L25.77 12.15Q26.21 11.38 26.21 9.88L26.21 9.88L26.21 9.88Q26.21 8.43 25.78 7.67L25.78 7.67L25.78 7.67Q25.35 6.90 24.50 6.90L24.50 6.90L24.50 6.90Q24.00 6.90 23.57 7.17L23.57 7.17L23.57 7.17Q23.14 7.45 22.90 7.94L22.90 7.94L22.90 7.94Q22.58 8.61 22.58 9.63L22.58 9.63ZM22.55 1.96L22.55 7.13L22.61 7.13L22.61 7.13Q22.97 6.59 23.55 6.31L23.55 6.31L23.55 6.31Q24.12 6.02 24.85 6.02L24.85 6.02L24.85 6.02Q25.59 6.02 26.23 6.32L26.23 6.32L26.23 6.32Q26.87 6.62 27.34 7.14L27.34 7.14L27.34 7.14Q27.80 7.66 28.07 8.36L28.07 8.36L28.07 8.36Q28.34 9.06 28.34 9.86L28.34 9.86L28.34 9.86Q28.34 10.70 28.05 11.40L28.05 11.40L28.05 11.40Q27.76 12.11 27.27 12.63L27.27 12.63L27.27 12.63Q26.77 13.15 26.10 13.44L26.10 13.44L26.10 13.44Q25.44 13.73 24.70 13.73L24.70 13.73L24.70 13.73Q23.93 13.73 23.25 13.43L23.25 13.43L23.25 13.43Q22.57 13.13 22.16 12.64L22.16 12.64L21.10 13.58L20.62 13.58L20.62 5.25L20.62 5.25Q20.62 3.93 20.44 3.44L20.44 3.44L20.44 3.44Q20.40 3.35 20.34 3.28L20.34 3.28L20.34 3.28Q20.29 3.21 20.18 3.16L20.18 3.16L20.18 3.16Q20.08 3.11 19.89 3.07L19.89 3.07L19.89 3.07Q19.71 3.04 19.42 3.00L19.42 3.00L19.42 2.52L22.55 1.96ZM35.38 9.91L35.38 8.46L35.38 8.46Q35.38 7.90 35.35 7.57L35.35 7.57L35.35 7.57Q35.32 7.24 35.20 7.06L35.20 7.06L35.20 7.06Q35.07 6.89 34.83 6.83L34.83 6.83L34.83 6.83Q34.58 6.76 34.16 6.72L34.16 6.72L34.16 6.16L37.32 6.16L37.32 10.40L37.32 10.40Q37.32 11.26 37.34 11.74L37.34 11.74L37.34 11.74Q37.37 12.22 37.42 12.46L37.42 12.46L37.42 12.46Q37.46 12.64 37.52 12.75L37.52 12.75L37.52 12.75Q37.58 12.85 37.70 12.91L37.70 12.91L37.70 12.91Q37.83 12.98 38.05 13.00L38.05 13.00L38.05 13.00Q38.26 13.02 38.61 13.02L38.61 13.02L38.61 13.57L35.83 13.73L35.67 12.49L35.62 12.49L35.62 12.49Q35.25 13.08 34.59 13.40L34.59 13.40L34.59 13.40Q33.94 13.72 33.12 13.72L33.12 13.72L33.12 13.72Q31.63 13.72 30.84 12.66L30.84 12.66L30.84 12.66Q30.24 11.84 30.24 10.35L30.24 10.35L30.24 8.46L30.24 8.46Q30.24 7.88 30.21 7.55L30.21 7.55L30.21 7.55Q30.18 7.22 30.07 7.06L30.07 7.06L30.07 7.06Q29.95 6.89 29.71 6.83L29.71 6.83L29.71 6.83Q29.47 6.76 29.05 6.72L29.05 6.72L29.05 6.16L32.19 6.16L32.19 10.12L32.19 10.12Q32.19 11.54 32.54 12.17L32.54 12.17L32.54 12.17Q32.89 12.81 33.66 12.81L33.66 12.81L33.66 12.81Q34.48 12.81 34.93 12.05L34.93 12.05L34.93 12.05Q35.38 11.33 35.38 9.91L35.38 9.91ZM40.29 13.09L39.98 13.58L39.55 13.58L39.55 11.03L40.14 11.03L40.14 11.03Q40.38 12.04 40.82 12.50L40.82 12.50L40.82 12.50Q41.27 12.96 41.99 12.96L41.99 12.96L41.99 12.96Q42.50 12.96 42.79 12.75L42.79 12.75L42.79 12.75Q43.08 12.53 43.08 12.15L43.08 12.15L43.08 12.15Q43.08 11.76 42.73 11.39L42.73 11.39L42.73 11.39Q42.38 11.02 41.59 10.60L41.59 10.60L41.59 10.60Q40.53 10.02 40.07 9.46L40.07 9.46L40.07 9.46Q39.61 8.89 39.61 8.18L39.61 8.18L39.61 8.18Q39.61 7.71 39.78 7.31L39.78 7.31L39.78 7.31Q39.96 6.92 40.26 6.62L40.26 6.62L40.26 6.62Q40.56 6.33 40.98 6.17L40.98 6.17L40.98 6.17Q41.40 6.01 41.89 6.01L41.89 6.01L41.89 6.01Q42.32 6.01 42.75 6.13L42.75 6.13L42.75 6.13Q43.18 6.26 43.50 6.48L43.50 6.48L43.75 6.15L44.11 6.15L44.11 8.26L43.57 8.26L43.57 8.26Q43.25 7.46 42.90 7.11L42.90 7.11L42.90 7.11Q42.56 6.76 42.07 6.76L42.07 6.76L42.07 6.76Q41.68 6.76 41.45 6.97L41.45 6.97L41.45 6.97Q41.22 7.18 41.22 7.53L41.22 7.53L41.22 7.53Q41.22 7.92 41.56 8.27L41.56 8.27L41.56 8.27Q41.90 8.62 42.70 9.04L42.70 9.04L42.70 9.04Q43.26 9.35 43.67 9.65L43.67 9.65L43.67 9.65Q44.07 9.94 44.32 10.24L44.32 10.24L44.32 10.24Q44.58 10.54 44.70 10.87L44.70 10.87L44.70 10.87Q44.81 11.20 44.81 11.58L44.81 11.58L44.81 11.58Q44.81 12.07 44.63 12.46L44.63 12.46L44.63 12.46Q44.45 12.85 44.11 13.13L44.11 13.13L44.11 13.13Q43.78 13.41 43.31 13.57L43.31 13.57L43.31 13.57Q42.84 13.72 42.27 13.72L42.27 13.72L42.27 13.72Q41.66 13.72 41.15 13.56L41.15 13.56L41.15 13.56Q40.63 13.40 40.29 13.09L40.29 13.09ZM53.06 4.06L53.06 7.62L53.06 7.62Q53.96 7.62 54.50 7.56L54.50 7.56L54.50 7.56Q55.05 7.50 55.35 7.33L55.35 7.33L55.35 7.33Q55.65 7.15 55.78 6.82L55.78 6.82L55.78 6.82Q55.90 6.48 55.97 5.91L55.97 5.91L56.49 5.91L56.49 10.01L55.97 10.01L55.97 10.01Q55.89 9.45 55.75 9.11L55.75 9.11L55.75 9.11Q55.61 8.78 55.30 8.60L55.30 8.60L55.30 8.60Q54.99 8.43 54.47 8.38L54.47 8.38L54.47 8.38Q53.94 8.33 53.06 8.33L53.06 8.33L53.06 11.21L53.06 11.21Q53.06 11.66 53.18 11.97L53.18 11.97L53.18 11.97Q53.30 12.28 53.58 12.47L53.58 12.47L53.58 12.47Q53.86 12.66 54.32 12.73L54.32 12.73L54.32 12.73Q54.78 12.81 55.45 12.81L55.45 12.81L55.45 12.81Q56.25 12.81 56.80 12.70L56.80 12.70L56.80 12.70Q57.36 12.59 57.72 12.31L57.72 12.31L57.72 12.31Q58.09 12.03 58.31 11.56L58.31 11.56L58.31 11.56Q58.53 11.09 58.69 10.37L58.69 10.37L59.25 10.37L59.02 13.58L49.53 13.58L49.53 13.02L49.53 13.02Q49.99 13.01 50.29 12.94L50.29 12.94L50.29 12.94Q50.58 12.87 50.74 12.70L50.74 12.70L50.74 12.70Q50.89 12.53 50.95 12.22L50.95 12.22L50.95 12.22Q51.00 11.91 51.00 11.42L51.00 11.42L51.00 4.96L51.00 4.96Q51.00 4.47 50.95 4.16L50.95 4.16L50.95 4.16Q50.90 3.86 50.76 3.69L50.76 3.69L50.76 3.69Q50.62 3.51 50.37 3.45L50.37 3.45L50.37 3.45Q50.11 3.39 49.69 3.36L49.69 3.36L49.69 2.80L58.53 2.80L58.63 5.54L58.03 5.54L58.03 5.54Q57.95 4.96 57.76 4.57L57.76 4.57L57.76 4.57Q57.58 4.19 57.26 3.96L57.26 3.96L57.26 3.96Q56.94 3.72 56.43 3.63L56.43 3.63L56.43 3.63Q55.92 3.54 55.17 3.54L55.17 3.54L53.59 3.54L53.59 3.54Q53.23 3.54 53.14 3.63L53.14 3.63L53.14 3.63Q53.06 3.72 53.06 4.06L53.06 4.06ZM63.34 9.37L63.34 11.30L63.34 11.30Q63.34 11.87 63.37 12.20L63.37 12.20L63.37 12.20Q63.41 12.53 63.52 12.71L63.52 12.71L63.52 12.71Q63.64 12.88 63.89 12.94L63.89 12.94L63.89 12.94Q64.13 12.99 64.55 13.02L64.55 13.02L64.55 13.58L60.14 13.58L60.14 13.02L60.14 13.02Q60.55 12.99 60.80 12.94L60.80 12.94L60.80 12.94Q61.04 12.88 61.17 12.71L61.17 12.71L61.17 12.71Q61.31 12.54 61.35 12.24L61.35 12.24L61.35 12.24Q61.39 11.93 61.39 11.40L61.39 11.40L61.39 9.65L61.39 9.65Q61.39 8.82 61.36 8.31L61.36 8.31L61.36 8.31Q61.33 7.80 61.29 7.62L61.29 7.62L61.29 7.62Q61.25 7.43 61.18 7.31L61.18 7.31L61.18 7.31Q61.11 7.20 60.97 7.13L60.97 7.13L60.97 7.13Q60.83 7.07 60.62 7.05L60.62 7.05L60.62 7.05Q60.41 7.03 60.09 7.03L60.09 7.03L60.09 6.55L62.79 6.02L62.97 7.25L63.03 7.25L63.03 7.25Q63.49 6.66 64.12 6.34L64.12 6.34L64.12 6.34Q64.75 6.02 65.51 6.02L65.51 6.02L65.51 6.02Q66.40 6.02 66.95 6.26L66.95 6.26L66.95 6.26Q67.51 6.51 67.94 7.08L67.94 7.08L67.94 7.08Q68.18 7.41 68.36 7.92L68.36 7.92L68.36 7.92Q68.54 8.43 68.54 9.32L68.54 9.32L68.54 11.30L68.54 11.30Q68.54 11.87 68.58 12.20L68.58 12.20L68.58 12.20Q68.61 12.53 68.73 12.71L68.73 12.71L68.73 12.71Q68.85 12.88 69.09 12.94L69.09 12.94L69.09 12.94Q69.33 12.99 69.73 13.02L69.73 13.02L69.73 13.58L65.35 13.58L65.35 13.02L65.35 13.02Q65.77 13.01 66.02 12.94L66.02 12.94L66.02 12.94Q66.26 12.88 66.39 12.71L66.39 12.71L66.39 12.71Q66.51 12.54 66.56 12.23L66.56 12.23L66.56 12.23Q66.60 11.91 66.60 11.40L66.60 11.40L66.60 9.49L66.60 9.49Q66.60 8.78 66.51 8.29L66.51 8.29L66.51 8.29Q66.43 7.80 66.24 7.50L66.24 7.50L66.24 7.50Q66.05 7.20 65.74 7.06L65.74 7.06L65.74 7.06Q65.44 6.93 64.97 6.93L64.97 6.93L64.97 6.93Q64.53 6.93 64.20 7.18L64.20 7.18L64.20 7.18Q63.88 7.43 63.64 7.88L63.64 7.88L63.64 7.88Q63.52 8.13 63.43 8.53L63.43 8.53L63.43 8.53Q63.34 8.93 63.34 9.37L63.34 9.37ZM73.51 6.02L73.51 11.28L73.51 11.28Q73.51 11.84 73.56 12.18L73.56 12.18L73.56 12.18Q73.60 12.52 73.72 12.70L73.72 12.70L73.72 12.70Q73.85 12.88 74.09 12.94L74.09 12.94L74.09 12.94Q74.33 13.01 74.73 13.02L74.73 13.02L74.73 13.58L70.32 13.58L70.32 13.02L70.32 13.02Q70.71 13.01 70.96 12.93L70.96 12.93L70.96 12.93Q71.20 12.85 71.34 12.68L71.34 12.68L71.34 12.68Q71.47 12.50 71.52 12.19L71.52 12.19L71.52 12.19Q71.57 11.87 71.57 11.38L71.57 11.38L71.57 9.66L71.57 9.66Q71.57 8.85 71.54 8.32L71.54 8.32L71.54 8.32Q71.51 7.80 71.47 7.60L71.47 7.60L71.47 7.60Q71.40 7.25 71.16 7.14L71.16 7.14L71.16 7.14Q70.91 7.03 70.27 7.03L70.27 7.03L70.27 6.55L73.51 6.02ZM71.46 3.05L71.46 3.05L71.46 3.05Q71.46 2.59 71.77 2.28L71.77 2.28L71.77 2.28Q72.09 1.96 72.53 1.96L72.53 1.96L72.53 1.96Q73.00 1.96 73.31 2.28L73.31 2.28L73.31 2.28Q73.63 2.59 73.63 3.05L73.63 3.05L73.63 3.05Q73.63 3.50 73.31 3.81L73.31 3.81L73.31 3.81Q73.00 4.13 72.53 4.13L72.53 4.13L72.53 4.13Q72.09 4.13 71.77 3.81L71.77 3.81L71.77 3.81Q71.46 3.50 71.46 3.05ZM78.16 12.07L78.16 12.07L78.16 12.07Q78.54 12.10 78.83 12.12L78.83 12.12L78.83 12.12Q79.11 12.15 79.37 12.19L79.37 12.19L79.37 12.19Q79.63 12.22 79.89 12.26L79.89 12.26L79.89 12.26Q80.15 12.29 80.44 12.33L80.44 12.33L80.44 12.33Q81.54 12.49 82.16 13.15L82.16 13.15L82.16 13.15Q82.78 13.82 82.78 14.80L82.78 14.80L82.78 14.80Q82.78 15.99 81.80 16.60L81.80 16.60L81.80 16.60Q80.82 17.22 78.92 17.22L78.92 17.22L78.92 17.22Q77.17 17.22 76.22 16.71L76.22 16.71L76.22 16.71Q75.28 16.20 75.28 15.26L75.28 15.26L75.28 15.26Q75.28 14.53 75.66 14.16L75.66 14.16L75.66 14.16Q76.03 13.79 76.61 13.79L76.61 13.79L76.61 13.79Q76.97 13.79 77.31 13.94L77.31 13.94L77.31 13.94Q77.66 14.08 77.90 14.36L77.90 14.36L77.90 14.36Q77.53 14.43 77.30 14.69L77.30 14.69L77.30 14.69Q77.07 14.95 77.07 15.30L77.07 15.30L77.07 15.30Q77.07 15.86 77.57 16.16L77.57 16.16L77.57 16.16Q78.06 16.46 79.03 16.46L79.03 16.46L79.03 16.46Q81.13 16.46 81.13 15.13L81.13 15.13L81.13 15.13Q81.13 14.66 80.81 14.31L80.81 14.31L80.81 14.31Q80.50 13.97 79.91 13.90L79.91 13.90L77.46 13.57L77.46 13.57Q75.91 13.36 75.91 12.18L75.91 12.18L75.91 12.18Q75.91 11.61 76.28 11.24L76.28 11.24L76.28 11.24Q76.65 10.88 77.34 10.74L77.34 10.74L77.34 10.68L77.34 10.68Q77.01 10.56 76.75 10.33L76.75 10.33L76.75 10.33Q76.50 10.11 76.30 9.81L76.30 9.81L76.30 9.81Q76.10 9.52 76.00 9.18L76.00 9.18L76.00 9.18Q75.89 8.83 75.89 8.47L75.89 8.47L75.89 8.47Q75.89 7.95 76.11 7.50L76.11 7.50L76.11 7.50Q76.33 7.04 76.71 6.72L76.71 6.72L76.71 6.72Q77.10 6.40 77.62 6.21L77.62 6.21L77.62 6.21Q78.15 6.02 78.76 6.02L78.76 6.02L78.76 6.02Q79.37 6.02 79.94 6.20L79.94 6.20L79.94 6.20Q80.51 6.38 80.92 6.71L80.92 6.71L80.92 6.71Q81.24 6.51 81.48 6.38L81.48 6.38L81.48 6.38Q81.72 6.24 81.92 6.17L81.92 6.17L81.92 6.17Q82.12 6.09 82.29 6.05L82.29 6.05L82.29 6.05Q82.46 6.02 82.63 6.02L82.63 6.02L82.63 6.02Q83.16 6.02 83.49 6.26L83.49 6.26L83.49 6.26Q83.82 6.50 83.82 6.89L83.82 6.89L83.82 6.89Q83.82 7.18 83.64 7.37L83.64 7.37L83.64 7.37Q83.45 7.56 83.16 7.56L83.16 7.56L83.16 7.56Q82.95 7.56 82.82 7.47L82.82 7.47L82.82 7.47Q82.70 7.38 82.58 7.26L82.58 7.26L82.58 7.26Q82.46 7.14 82.33 7.05L82.33 7.05L82.33 7.05Q82.21 6.96 82.00 6.96L82.00 6.96L82.00 6.96Q81.70 6.96 81.44 7.34L81.44 7.34L81.44 7.34Q81.58 7.57 81.63 7.85L81.63 7.85L81.63 7.85Q81.69 8.12 81.69 8.48L81.69 8.48L81.69 8.48Q81.69 9.02 81.52 9.46L81.52 9.46L81.52 9.46Q81.35 9.91 81.00 10.25L81.00 10.25L81.00 10.25Q80.64 10.60 80.08 10.84L80.08 10.84L80.08 10.84Q79.52 11.07 78.72 11.16L78.72 11.16L78.72 11.16Q78.05 11.23 77.79 11.34L77.79 11.34L77.79 11.34Q77.53 11.45 77.53 11.68L77.53 11.68L77.53 11.68Q77.53 12.01 78.16 12.07ZM78.83 10.36L78.83 10.36L78.83 10.36Q79.28 10.36 79.53 9.88L79.53 9.88L79.53 9.88Q79.79 9.41 79.79 8.55L79.79 8.55L79.79 8.55Q79.79 7.69 79.53 7.22L79.53 7.22L79.53 7.22Q79.28 6.75 78.82 6.75L78.82 6.75L78.82 6.75Q78.34 6.75 78.06 7.22L78.06 7.22L78.06 7.22Q77.78 7.70 77.78 8.53L77.78 8.53L77.78 8.53Q77.78 9.37 78.07 9.86L78.07 9.86L78.07 9.86Q78.36 10.36 78.83 10.36ZM87.12 9.42L87.12 11.27L87.12 11.27Q87.12 11.86 87.15 12.19L87.15 12.19L87.15 12.19Q87.18 12.53 87.30 12.71L87.30 12.71L87.30 12.71Q87.43 12.88 87.67 12.94L87.67 12.94L87.67 12.94Q87.91 12.99 88.33 13.02L88.33 13.02L88.33 13.58L83.90 13.58L83.90 13.02L83.90 13.02Q84.32 12.99 84.57 12.94L84.57 12.94L84.57 12.94Q84.83 12.88 84.95 12.71L84.95 12.71L84.95 12.71Q85.08 12.54 85.12 12.23L85.12 12.23L85.12 12.23Q85.16 11.91 85.16 11.38L85.16 11.38L85.16 9.65L85.16 9.65Q85.16 8.85 85.14 8.32L85.14 8.32L85.14 8.32Q85.12 7.78 85.06 7.59L85.06 7.59L85.06 7.59Q85.02 7.41 84.96 7.30L84.96 7.30L84.96 7.30Q84.90 7.20 84.76 7.13L84.76 7.13L84.76 7.13Q84.63 7.07 84.42 7.05L84.42 7.05L84.42 7.05Q84.21 7.03 83.87 7.03L83.87 7.03L83.87 6.55L86.58 6.02L86.74 7.24L86.83 7.24L86.83 7.24Q87.42 6.58 88.01 6.30L88.01 6.30L88.01 6.30Q88.61 6.02 89.39 6.02L89.39 6.02L89.39 6.02Q90.31 6.02 90.92 6.34L90.92 6.34L90.92 6.34Q91.52 6.66 91.83 7.27L91.83 7.27L91.88 7.27L91.88 7.27Q92.39 6.68 93.09 6.35L93.09 6.35L93.09 6.35Q93.79 6.02 94.58 6.02L94.58 6.02L94.58 6.02Q95.42 6.02 96.05 6.23L96.05 6.23L96.05 6.23Q96.67 6.44 97.02 6.83L97.02 6.83L97.02 6.83Q97.30 7.15 97.43 7.67L97.43 7.67L97.43 7.67Q97.57 8.19 97.57 9.11L97.57 9.11L97.57 11.27L97.57 11.27Q97.57 11.84 97.60 12.18L97.60 12.18L97.60 12.18Q97.64 12.52 97.76 12.70L97.76 12.70L97.76 12.70Q97.89 12.88 98.13 12.94L98.13 12.94L98.13 12.94Q98.36 12.99 98.78 13.02L98.78 13.02L98.78 13.58L94.36 13.58L94.36 13.02L94.36 13.02Q94.78 13.01 95.03 12.94L95.03 12.94L95.03 12.94Q95.27 12.88 95.40 12.71L95.40 12.71L95.40 12.71Q95.54 12.53 95.57 12.22L95.57 12.22L95.57 12.22Q95.61 11.91 95.61 11.38L95.61 11.38L95.61 9.55L95.61 9.55Q95.61 8.82 95.52 8.32L95.52 8.32L95.52 8.32Q95.44 7.81 95.26 7.50L95.26 7.50L95.26 7.50Q95.07 7.20 94.77 7.06L94.77 7.06L94.77 7.06Q94.47 6.93 94.04 6.93L94.04 6.93L94.04 6.93Q93.55 6.93 93.23 7.17L93.23 7.17L93.23 7.17Q92.92 7.41 92.71 7.78L92.71 7.78L92.71 7.78Q92.34 8.44 92.34 9.42L92.34 9.42L92.34 11.27L92.34 11.27Q92.34 11.84 92.37 12.18L92.37 12.18L92.37 12.18Q92.40 12.52 92.53 12.70L92.53 12.70L92.53 12.70Q92.65 12.88 92.90 12.94L92.90 12.94L92.90 12.94Q93.14 12.99 93.58 13.02L93.58 13.02L93.58 13.58L89.14 13.58L89.14 13.02L89.14 13.02Q89.56 12.99 89.80 12.94L89.80 12.94L89.80 12.94Q90.05 12.88 90.18 12.71L90.18 12.71L90.18 12.71Q90.31 12.54 90.35 12.23L90.35 12.23L90.35 12.23Q90.38 11.91 90.38 11.38L90.38 11.38L90.38 9.55L90.38 9.55Q90.38 8.82 90.30 8.32L90.30 8.32L90.30 8.32Q90.22 7.81 90.03 7.50L90.03 7.50L90.03 7.50Q89.84 7.20 89.53 7.06L89.53 7.06L89.53 7.06Q89.22 6.93 88.76 6.93L88.76 6.93L88.76 6.93Q88.30 6.93 88.00 7.15L88.00 7.15L88.00 7.15Q87.70 7.38 87.50 7.76L87.50 7.76L87.50 7.76Q87.32 8.09 87.22 8.53L87.22 8.53L87.22 8.53Q87.12 8.96 87.12 9.42L87.12 9.42ZM103.81 10.92L103.81 9.59L103.81 9.59Q102.63 10.12 102.04 10.58L102.04 10.58L102.04 10.58Q101.44 11.03 101.44 11.52L101.44 11.52L101.44 11.52Q101.44 11.93 101.67 12.17L101.67 12.17L101.67 12.17Q101.89 12.40 102.23 12.40L102.23 12.40L102.23 12.40Q102.56 12.40 102.86 12.29L102.86 12.29L102.86 12.29Q103.15 12.17 103.36 11.97L103.36 11.97L103.36 11.97Q103.57 11.77 103.69 11.50L103.69 11.50L103.69 11.50Q103.81 11.23 103.81 10.92L103.81 10.92ZM101.84 9.70L103.81 8.85L103.81 8.26L103.81 8.26Q103.81 7.45 103.52 7.08L103.52 7.08L103.52 7.08Q103.24 6.71 102.63 6.71L102.63 6.71L102.63 6.71Q102.23 6.71 102.02 6.92L102.02 6.92L102.02 6.92Q101.81 7.14 101.63 7.64L101.63 7.64L101.63 7.64Q101.50 7.99 101.27 8.19L101.27 8.19L101.27 8.19Q101.04 8.39 100.63 8.39L100.63 8.39L100.63 8.39Q100.24 8.39 100.03 8.15L100.03 8.15L100.03 8.15Q99.82 7.91 99.82 7.48L99.82 7.48L99.82 7.48Q99.82 6.80 100.56 6.41L100.56 6.41L100.56 6.41Q101.29 6.02 102.77 6.02L102.77 6.02L102.77 6.02Q104.34 6.02 105.01 6.59L105.01 6.59L105.01 6.59Q105.69 7.15 105.69 8.48L105.69 8.48L105.69 11.55L105.69 11.55Q105.69 12.74 106.16 12.74L106.16 12.74L106.16 12.74Q106.43 12.74 106.65 12.56L106.65 12.56L106.86 12.96L106.86 12.96Q106.67 13.31 106.25 13.52L106.25 13.52L106.25 13.52Q105.84 13.72 105.32 13.72L105.32 13.72L105.32 13.72Q104.68 13.72 104.34 13.33L104.34 13.33L104.34 13.33Q104.01 12.94 104.01 12.22L104.01 12.22L103.94 12.22L103.94 12.22Q103.53 12.95 102.89 13.33L102.89 13.33L102.89 13.33Q102.24 13.71 101.42 13.71L101.42 13.71L101.42 13.71Q100.53 13.71 100.00 13.21L100.00 13.21L100.00 13.21Q99.47 12.71 99.47 11.91L99.47 11.91L99.47 11.91Q99.47 11.30 100.02 10.76L100.02 10.76L100.02 10.76Q100.56 10.22 101.84 9.70L101.84 9.70Z"></path></g><!----><g data-v-d3f97b9e="" id="18a39b64-f859-45e7-9bdd-d7700a4944d5" transform="matrix(1.110843300819397,0,0,1.110843300819397,-2.7813358306884766,-10.052579879760742)" stroke="none" fill="#4B279B"><switch><g><path d="M96.1 17.3c-3.1 3.1-10.6 8.1-22.5 5.4-6.4-1.4-12.4-1.5-16.2-1.4-.1 0-.2-.1-.2-.2.3-3.2.1-7.1-1.3-11.1-.2-.6-1.1-.7-1.4-.1-1.7 3.5-6.4 11.9-13.4 15.2-2.1 1-3.9 2.4-5.2 4.2-1.4 1.9-3.3 4-5.9 6-3.3 2.5-6.6 3.8-9.2 4.6-1.9.6-2.7 2.8-1.6 4.4 1.5 2.3 4 5 7.6 6.2.2.1.3-.1.3-.3-.3-.9-1-2.9-.9-4.3 0-.2.2-.3.4-.1.7.6 2.5 1.9 5.7 1.9.2 0 .3-.3.1-.4-.7-.6-1.8-1.7-2-3.2 0-.2.2-.3.3-.2.8.5 2.6 1.6 5.3 1.6.2 0 .3-.3.1-.4-.7-.5-1.7-1.4-1.6-3.3 0-.1.1-.2.2-.2.9-.1 5-.4 8.9.8.2.1.2.3 0 .4-.8.4-1.7.8-2.6 1.3-2.3 1.3-4 2.7-5.4 4-.4.3-1.1.8-2.1 1.1-1.2.3-2.3.1-3-.2-.2-.1-.4.1-.3.3.3.5.9 1.3 1.6 1.6 1.1.5-1.3 1.2-3.2.8-1.4-.2-2.8-.8-3.4-1-.2-.1-.4.1-.3.3.4 1.1 1.5 3.9 4.6 5 .3.1.5.2.8.2 2.4.5 5-.7 6.1-2.9 0-.1.1-.2.1-.3 0 0 1-1.9 3.2-3.6 2.3-1.8 6.9-3.3 12.6-3.3h.1c2.9 1.7 4.9 5.1 4.5 8.5-.3 2-1.3 3.7-2.3 5.3-3 4.8-10.1 6-15.2 7.5-4.3 1.2-8.7 2.3-13.1 3-3.6.6-7.1 1.1-10.5 2.7-4.5 2.3-8.2 5.9-10.7 10.3-1 1.8-1.8 3.8-2.4 5.8-.2.9.7 1.6 1.5 1.2 9.9-5.6 16.2-3.7 33.5-3C53 87.9 60 80.5 61.9 78c.1-.2.5 0 .4.2-.9 3.2-4 7.5-5.8 9.8-.4.5.1 1.2.7 1 9-3.6 14.3-17.7 15.6-21.5.1-.2.4-.2.4.1.3 4.3-1.5 9.3-2.9 12.6-.3.6.5 1.1.9.6 15.1-17.7 5.7-32 3.2-35.2-.1-.2.1-.4.3-.3 3.9 1.8 7 6.4 8.6 9.4.4.6 1.3.4 1.3-.4-.1-2.5-.6-5.1-1.6-7.4-.8-1.7-1.8-3.2-3.2-4.5-1.4-1.4-3.1-2.4-4.9-3.3-1.2-.6-2.4-1.3-3.6-2.1-.6-.4-1.2-.8-1.7-1.2-.4-.3-.9-.6-1.3-.9-.2-.2 0-.4.2-.4.4.1.8.2 1.1.3.6.2 1.1.3 1.6.5 1.1.4 2.1.8 3.2 1.1 1.2.4 2.4.7 3.6 1 8.5 2.1 13.4-.4 15.7-2.3.4-.4.1-1-.5-.9-4.2.9-11.3-.7-16.4-3-4.4-2.2-10.4-3.5-12.8-3.9-.2 0-.2-.4 0-.4 3-.4 7.2.9 9.7 1.4 6.1 1.3 12.6.8 18.8-3.5 2.9-2 4.2-4.8 4.6-6.8.3-.7-.5-1.2-1-.7zM43.7 30l-.2 1c-.2.7-.6 1.4-1.3 1.7L39.5 34c-.8.4-1.4-.6-.8-1.2l3.7-3.5c.6-.6 1.5-.1 1.3.7z"></path></g></switch></g><!----></svg>