<svg data-v-d3f97b9e="" xmlns="http://www.w3.org/2000/svg" viewBox="0 0 589 90"><!----><!----><!----><g data-v-d3f97b9e="" id="b50109f6-0f9e-4f66-9296-a6226997a81f" fill="#000000" transform="matrix(6.1219611167907715,0,0,6.1219611167907715,123.00939178466797,3.1865272521972656)"><path d="M0.32 10.60L0.32 1.93L2.25 1.93L2.25 3.77L2.25 3.77Q2.25 4.70 2.21 5.76L2.21 5.76L2.21 5.78L2.24 5.78L2.24 5.78Q2.47 5.33 3.53 3.46L3.53 3.46L3.53 3.46Q4.08 2.51 4.08 2.02L4.08 2.02L4.08 1.93L6.06 1.93L6.06 1.98L6.06 1.98Q6.06 2.92 5.28 4.03L5.28 4.03L4.11 5.74L5.26 8.19L6.30 8.19L6.30 8.48L5.13 8.48L5.13 8.50L5.13 8.50Q5.41 9.11 5.50 9.23L5.50 9.23L5.71 9.23L5.71 10.12L6.01 10.12L6.01 11.72L6.01 11.72Q5.50 11.73 5.26 11.73L5.26 11.73L4.79 11.73L4.79 11.73Q4.53 11.73 4.09 11.72L4.09 11.72L4.09 10.64L3.66 10.64L3.66 9.23L3.42 9.23L3.16 8.48L5.11 8.48L5.11 8.19L3.32 8.19L3.32 8.19Q3.32 8.16 3.01 7.20L3.01 7.20L2.99 7.20L2.99 7.20Q2.82 7.51 2.33 8.19L2.33 8.19L3.16 8.19L3.16 8.48L2.25 8.48L2.25 8.96L2.13 8.96L2.13 11.20L2.25 11.20L2.25 11.70L2.25 11.70Q2.25 11.73 2.21 11.73L2.21 11.73L0.36 11.73L0.36 11.73Q0.32 11.73 0.32 11.70L0.32 11.70L0.32 10.92L1.20 10.92L1.20 10.60L0.32 10.60ZM5.31 7.69L5.31 7.69L5.41 7.69L5.41 7.69Q5.46 7.69 5.51 7.96L5.51 7.96L5.51 7.96Q5.54 7.96 5.61 7.69L5.61 7.69L5.76 7.69L5.76 8.11L5.76 8.11Q5.76 8.14 5.73 8.14L5.73 8.14L5.66 8.14L5.66 7.88L5.65 7.88L5.65 7.88Q5.65 7.90 5.56 8.14L5.56 8.14L5.51 8.14L5.51 8.14Q5.46 8.14 5.41 7.91L5.41 7.91L5.39 7.91L5.39 8.11L5.39 8.11Q5.39 8.14 5.37 8.14L5.37 8.14L5.31 8.14L5.31 8.14Q5.28 8.14 5.28 8.11L5.28 8.11L5.28 7.72L5.28 7.72Q5.28 7.69 5.31 7.69ZM2.32 8.19L1.11 8.19L1.11 8.48L2.24 8.48L2.24 8.48Q2.24 8.43 2.32 8.19L2.32 8.19ZM3.68 10.73L3.68 10.71L3.78 10.71L3.78 10.71Q3.80 10.71 3.88 10.82L3.88 10.82L3.88 10.82Q3.94 10.71 3.96 10.71L3.96 10.71L4.06 10.71L4.06 10.73L3.93 10.92L3.93 10.92Q3.96 10.93 4.08 11.14L4.08 11.14L3.94 11.14L3.88 11.01L3.88 11.01Q3.78 11.14 3.77 11.14L3.77 11.14L3.66 11.14L3.66 11.14Q3.78 10.93 3.81 10.92L3.81 10.92L3.68 10.73ZM6.90 1.96L6.90 1.96L8.83 1.96L8.83 1.96Q8.83 3.37 9.32 4.35L9.32 4.35L9.32 4.35Q9.84 5.64 10.04 6.39L10.04 6.39L10.04 6.41L10.06 6.41L10.06 6.41Q10.30 5.50 11.07 3.62L11.07 3.62L11.07 3.62Q11.27 2.72 11.27 1.96L11.27 1.96L13.08 1.96L13.08 1.96Q12.91 3.43 12.67 4.13L12.67 4.13L11.58 6.59L10.92 6.59L10.92 8.28L9.93 8.28L9.93 8.61L10.92 8.61L10.92 11.73L9.05 11.73L9.05 11.73Q9.02 11.73 9.02 11.70L9.02 11.70L9.02 10.17L8.72 10.17L8.72 7.46L9.28 7.46L9.28 7.21L8.67 7.21L8.67 7.21Q8.60 7.12 7.54 4.67L7.54 4.67L7.54 4.67Q7.10 3.68 7.10 3.49L7.10 3.49L7.90 3.49L7.90 3.14L7.03 3.14L7.03 3.14Q6.90 2.06 6.90 1.96ZM5.74 3.49L5.74 3.14L7.03 3.14L7.08 3.49L5.74 3.49ZM10.92 8.61L10.92 8.28L11.73 8.28L11.73 8.61L10.92 8.61ZM13.78 2.02L13.78 2.02L16.54 2.02L16.54 2.02Q18.38 2.02 18.88 2.95L18.88 2.95L18.88 2.95Q19.16 3.44 19.16 4.28L19.16 4.28L19.16 4.96L19.16 4.96Q19.16 5.91 18.33 6.50L18.33 6.50L18.33 6.50Q18.61 6.55 19.04 6.93L19.04 6.93L19.26 6.93L19.26 6.93Q19.67 7.36 19.79 7.75L19.79 7.75L19.79 7.75Q19.82 7.88 19.82 7.90L19.82 7.90L20.09 7.90L20.09 8.06L19.21 8.06L19.21 7.90L17.40 7.90L17.40 7.38L15.63 7.38L15.63 10.21L16.74 10.21L16.74 10.01L17.40 10.01L17.40 8.06L19.21 8.06L19.21 9.78L19.41 9.78L19.41 10.85L18.81 10.85L18.81 11.10L19.41 11.10L19.41 11.55L17.12 11.55L17.12 11.73L14.62 11.73L14.62 11.55L14.07 11.55L14.07 10.06L14.81 10.06L14.81 9.66L14.07 9.66L14.07 9.66Q14.05 8.52 14.05 7.96L14.05 7.96L14.05 7.25L13.42 7.25L13.42 7.07L14.05 7.07L14.05 6.69L13.75 6.69L13.75 2.06L13.75 2.06Q13.75 2.02 13.78 2.02ZM15.98 3.66L15.66 3.66L15.66 6.07L16.07 6.07L16.07 6.07Q16.80 6.07 17.04 5.82L17.04 5.82L17.04 5.82Q17.27 5.63 17.27 4.76L17.27 4.76L17.27 4.72L17.27 4.72Q17.27 3.99 17.04 3.83L17.04 3.83L17.04 3.83Q16.88 3.66 15.98 3.66L15.98 3.66ZM14.96 7.07L14.07 7.07L14.07 7.25L14.96 7.25L14.96 7.07ZM16.49 8.06L16.49 7.90L17.40 7.90L17.40 8.06L16.49 8.06ZM20.22 6.33L20.22 1.94L22.11 1.94L22.11 7.12L21.22 7.12L21.22 7.39L22.11 7.39L22.11 8.36L22.11 8.36Q22.11 9.69 22.58 9.91L22.58 9.91L22.58 9.91Q22.82 10.06 23.17 10.06L23.17 10.06L23.75 10.06L23.75 8.34L24.27 8.34L24.27 1.94L26.14 1.94L26.14 7.96L25.46 7.96L25.46 8.39L26.14 8.39L26.14 8.39Q26.13 8.61 26.13 8.72L26.13 8.72L26.13 10.64L25.14 10.64L25.14 11.73L20.77 11.73L20.77 10.38L20.36 10.38L20.36 6.33L20.22 6.33ZM22.11 7.39L22.11 7.12L23.17 7.12L23.17 7.39L22.11 7.39ZM29.85 1.96L29.85 1.96L29.85 1.96Q31.48 1.96 32.03 3.01L32.03 3.01L32.03 3.01Q32.42 3.80 32.42 4.56L32.42 4.56L32.40 4.56L32.40 4.56Q31.29 4.66 30.88 4.66L30.88 4.66L30.88 4.66Q30.88 4.12 30.54 3.75L30.54 3.75L30.54 3.75Q30.23 3.57 29.96 3.57L29.96 3.57L29.69 3.57L29.69 3.57Q28.99 3.57 28.84 4.11L28.84 4.11L28.84 4.11Q28.81 4.27 28.81 4.35L28.81 4.35L28.81 4.50L28.81 4.50Q28.81 5.26 29.61 5.61L29.61 5.61L29.61 5.61Q29.68 5.67 30.73 6.12L30.73 6.12L30.73 6.12Q31.29 6.38 31.77 6.76L31.77 6.76L31.77 6.77L30.06 6.77L30.06 6.97L32.32 6.97L32.32 7.24L32.61 7.24L32.61 10.21L32.05 10.21L32.05 11.73L27.70 11.73L27.70 10.21L26.67 10.21L26.67 9.18L27.25 9.18L27.25 8.83L26.67 8.83L26.67 8.59L28.66 8.59L28.66 10.21L30.70 10.21L30.70 7.77L29.18 7.77L29.18 6.97L27.28 6.97L27.28 6.77L28.20 6.77L28.20 6.76L28.20 6.76Q27.00 5.96 27.00 4.50L27.00 4.50L27.00 4.37L27.00 4.37Q27.00 3.14 27.75 2.51L27.75 2.51L27.75 2.51Q28.43 1.96 29.85 1.96ZM32.32 6.97L32.32 6.77L33.01 6.77L33.01 6.97L32.32 6.97ZM26.02 9.18L26.02 8.83L26.67 8.83L26.67 9.18L26.02 9.18ZM37.44 6.77L37.44 1.94L42.27 1.94L42.27 3.54L42.27 3.54Q42.27 3.58 42.23 3.58L42.23 3.58L39.37 3.58L39.37 5.70L41.94 5.70L41.94 5.71L41.94 5.71Q41.94 5.81 41.90 6.75L41.90 6.75L41.90 6.75Q41.89 6.75 41.89 6.77L41.89 6.77L42.01 6.77L42.01 7.27L39.78 7.27L39.78 9.28L39.18 9.28L39.18 9.47L39.78 9.47L39.78 10.08L42.30 10.08L42.30 10.32L42.10 10.32L42.10 11.52L39.09 11.52L39.09 11.73L37.65 11.73L37.65 8.22L37.44 8.22L37.44 6.99L35.88 6.99L35.88 6.77L37.44 6.77ZM38.26 6.77L37.45 6.77L37.45 6.99L38.26 6.99L38.26 6.77ZM39.93 10.04L39.93 9.59L40.04 9.59L40.04 9.75L40.06 9.75L40.06 9.75Q40.06 9.71 40.21 9.59L40.21 9.59L40.33 9.59L40.16 9.77L40.34 10.04L40.22 10.04L40.22 10.04Q40.09 9.85 40.08 9.85L40.08 9.85L40.08 9.85Q40.04 9.86 40.04 9.88L40.04 9.88L40.04 10.04L39.93 10.04ZM40.50 10.04L40.50 9.59L40.74 9.59L40.74 9.59Q40.84 9.59 40.89 9.72L40.89 9.72L40.89 9.72Q40.89 9.74 40.82 9.84L40.82 9.84L40.82 9.84Q40.87 9.84 40.89 10.04L40.89 10.04L40.80 10.04L40.80 10.04Q40.77 10.04 40.75 9.87L40.75 9.87L40.62 9.87L40.62 10.04L40.50 10.04ZM41.25 9.59L41.25 9.59L41.31 9.59L41.31 9.59Q41.46 9.59 41.49 9.79L41.49 9.79L41.49 9.85L41.49 9.85Q41.49 9.91 41.45 9.97L41.45 9.97L41.45 9.99L41.45 9.99Q41.49 9.99 41.49 10.01L41.49 10.01L41.49 10.01Q41.49 10.04 41.45 10.07L41.45 10.07L41.45 10.07Q41.42 10.07 41.39 10.01L41.39 10.01L41.31 10.04L41.25 10.04L41.25 10.04Q41.08 10.04 41.06 9.79L41.06 9.79L41.06 9.79Q41.11 9.59 41.25 9.59ZM41.18 9.79L41.18 9.79L41.18 9.84L41.18 9.84Q41.18 9.95 41.30 9.95L41.30 9.95L41.31 9.95L41.31 9.93L41.28 9.93L41.28 9.92L41.28 9.92Q41.28 9.89 41.33 9.87L41.33 9.87L41.38 9.90L41.38 9.90Q41.38 9.89 41.39 9.80L41.39 9.80L41.39 9.80Q41.38 9.67 41.26 9.67L41.26 9.67L41.26 9.67Q41.18 9.69 41.18 9.79ZM40.74 9.69L40.62 9.69L40.62 9.79L40.74 9.79L40.74 9.79Q40.77 9.79 40.77 9.75L40.77 9.75L40.77 9.72L40.77 9.72Q40.77 9.69 40.74 9.69L40.74 9.69ZM42.21 10.51L42.21 10.41L42.30 10.41L42.30 10.43L42.30 10.43Q42.30 10.73 42.25 10.73L42.25 10.73L42.25 10.73Q42.21 10.73 42.21 10.51L42.21 10.51ZM42.21 10.84L42.21 10.74L42.30 10.74L42.30 10.84L42.21 10.84ZM42.93 1.96L42.93 1.96L44.93 1.96L44.93 1.96Q44.97 1.96 45.57 3.53L45.57 3.53L45.57 3.53Q45.62 3.59 46.83 6.62L46.83 6.62L47.34 6.62L47.34 1.96L49.08 1.96L49.08 7.51L49.28 7.51L49.28 9.67L48.58 9.67L48.58 10.08L49.28 10.08L49.28 11.37L46.66 11.37L46.66 9.73L46.20 9.73L46.20 9.73Q45.25 7.44 44.93 6.56L44.93 6.56L44.93 4.92L44.68 4.92L44.68 9.93L44.28 9.93L44.28 11.66L42.65 11.66L42.65 7.94L42.94 7.94L42.94 7.92L42.94 7.92Q42.93 3.09 42.93 1.96ZM46.79 6.62L45.87 6.62L45.87 6.98L46.96 6.98L46.96 6.98Q46.83 6.62 46.79 6.62L46.79 6.62ZM48.15 6.62L47.35 6.62L47.35 6.98L46.97 6.98L46.97 6.98Q47.32 7.85 47.39 8.11L47.39 8.11L47.40 8.11L47.40 8.07L47.40 8.07Q47.35 7.18 47.35 6.98L47.35 6.98L48.15 6.98L48.15 6.62ZM46.66 11.73L46.66 11.55L49.83 11.55L49.83 11.73L46.66 11.73ZM50.53 1.93L50.53 1.93L52.38 1.93L52.38 1.93Q52.40 1.94 52.40 1.97L52.40 1.97L52.40 6.73L52.40 6.73Q52.40 6.76 52.38 6.76L52.38 6.76L52.16 6.76L52.16 11.70L52.16 11.70Q52.16 11.73 52.12 11.73L52.12 11.73L50.53 11.73L50.53 11.73Q50.50 11.73 50.50 11.70L50.50 11.70L50.50 6.64L50.00 6.64L50.00 6.64Q49.97 6.64 49.97 6.61L49.97 6.61L49.97 6.40L49.97 6.40Q49.98 6.36 50.00 6.36L50.00 6.36L50.50 6.36L50.50 1.97L50.50 1.97Q50.50 1.93 50.53 1.93ZM51.45 6.36L50.51 6.36L50.51 6.64L51.45 6.64L51.45 6.36ZM56.33 1.96L56.33 1.96L56.36 1.96L56.36 1.96Q58.54 1.96 59.03 3.38L59.03 3.38L59.03 3.38Q59.25 3.91 59.25 4.87L59.25 4.87L57.67 5.09L57.65 5.05L57.65 5.02L57.65 5.02Q57.65 3.86 56.87 3.64L56.87 3.64L56.87 3.64Q56.64 3.58 56.29 3.56L56.29 3.56L56.29 3.56Q55.45 3.56 55.20 4.47L55.20 4.47L55.20 4.47Q55.06 5.07 55.06 5.89L55.06 5.89L55.06 6.66L55.06 6.66Q55.06 7.99 55.09 8.67L55.09 8.67L55.49 8.67L55.49 10.03L57.44 10.03L57.44 7.70L56.21 7.70L56.21 6.45L59.90 6.45L59.90 6.72L59.42 6.72L59.42 8.16L58.43 8.16L58.43 8.62L58.91 8.62L58.91 11.39L53.63 11.39L53.63 9.91L53.03 9.91L53.03 9.78L53.29 9.78L53.29 9.64L53.63 9.64L53.63 9.08L52.71 9.08L52.71 7.90L53.14 7.90L53.14 7.90Q53.13 7.38 53.13 7.31L53.13 7.31L53.13 7.31Q53.13 4.20 53.46 3.56L53.46 3.56L53.46 3.56Q53.57 3.15 54.03 2.67L54.03 2.67L54.03 2.67Q54.72 1.96 56.33 1.96ZM54.99 11.73L54.99 11.54L57.00 11.54L57.00 11.73L54.99 11.73ZM60.12 9.38L60.12 1.98L62.29 1.98L62.29 1.98Q62.65 3.29 63.77 7.23L63.77 7.23L64.63 7.23L64.63 7.23Q64.66 7.23 64.91 6.30L64.91 6.30L64.91 6.30Q65.45 4.44 66.12 1.98L66.12 1.98L68.13 1.98L68.13 8.31L68.24 8.31L68.24 9.46L67.63 9.46L67.63 9.67L68.24 9.67L68.24 11.73L66.53 11.73L66.53 10.97L66.75 10.97L66.75 8.63L66.38 8.63L66.38 7.46L66.17 7.46L66.16 7.53L65.97 7.53L65.97 9.19L65.38 9.19L65.38 9.97L64.87 9.97L64.87 11.29L63.67 11.29L63.67 10.45L62.93 10.45L62.93 9.30L62.49 9.30L62.49 8.09L62.23 8.09L62.23 8.09Q62.22 8.00 62.07 7.46L62.07 7.46L63.80 7.46L63.75 7.23L62.02 7.23L62.07 7.46L61.84 7.46L61.84 8.98L61.95 8.98L61.95 10.64L61.53 10.64L61.53 10.94L61.95 10.94L61.95 11.38L60.41 11.38L60.41 9.38L60.12 9.38ZM61.84 6.54L61.82 6.54L61.82 6.66L61.82 6.66Q61.82 6.81 61.84 7.23L61.84 7.23L62.01 7.23L62.01 7.23Q61.84 6.58 61.84 6.54L61.84 6.54ZM66.40 6.56L66.38 6.56L66.24 7.23L66.38 7.23L66.38 7.23Q66.40 6.82 66.40 6.62L66.40 6.62L66.40 6.56ZM61.82 7.23L61.28 7.23L61.28 7.46L61.82 7.46L61.82 7.23ZM66.22 7.23L64.65 7.23L64.61 7.46L66.16 7.46L66.16 7.46Q66.22 7.29 66.22 7.23L66.22 7.23ZM67.59 7.23L66.40 7.23L66.40 7.46L67.59 7.46L67.59 7.23ZM64.57 7.46L63.83 7.46L63.83 7.46Q63.94 7.99 63.98 7.99L63.98 7.99L64.18 7.99L64.18 8.87L64.49 8.87L64.49 7.51L64.57 7.51L64.57 7.46ZM68.24 9.67L68.24 9.46L69.23 9.46L69.23 9.67L68.24 9.67ZM59.96 11.61L59.96 11.46L61.71 11.46L61.71 11.61L59.96 11.61ZM70.43 7.57L72.11 1.96L73.76 1.96L73.76 1.96Q73.79 2.10 75.36 7.29L75.36 7.29L75.66 7.29L75.66 10.51L74.98 10.51L74.98 10.76L75.66 10.76L75.66 11.45L73.84 11.45L73.84 9.47L71.62 9.47L71.62 10.32L70.71 10.32L70.71 11.73L69.06 11.73L69.06 11.63L69.19 11.63L69.19 10.32L69.87 10.32L69.87 7.57L70.43 7.57ZM72.92 4.71L72.88 4.71L72.88 4.72L72.88 4.72Q72.67 5.89 72.06 8.40L72.06 8.40L73.60 8.40L73.60 7.29L73.47 7.29L73.47 7.29Q72.92 4.92 72.92 4.71L72.92 4.71ZM68.58 7.57L68.58 7.28L69.87 7.28L69.87 7.57L68.58 7.57ZM73.84 11.73L73.84 11.57L76.04 11.57L76.04 11.73L73.84 11.73Z"></path></g><linearGradient data-v-d3f97b9e="" gradientTransform="rotate(25)" id="c1f0840f-8d6d-4623-882c-56de910338e9" x1="0%" y1="0%" x2="100%" y2="0%"><stop data-v-d3f97b9e="" offset="0%" style="stop-color: rgb(180, 55, 61); stop-opacity: 1;"></stop><stop data-v-d3f97b9e="" offset="100%" style="stop-color: rgb(178, 58, 203); stop-opacity: 1;"></stop></linearGradient><g data-v-d3f97b9e="" id="66718841-ffc9-4df5-99a5-1f94516a0a85" transform="matrix(1.110843300819397,0,0,1.110843300819397,-2.7813358306884766,-10.052579879760742)" stroke="none" fill="url(#c1f0840f-8d6d-4623-882c-56de910338e9)"><switch><g><path d="M96.1 17.3c-3.1 3.1-10.6 8.1-22.5 5.4-6.4-1.4-12.4-1.5-16.2-1.4-.1 0-.2-.1-.2-.2.3-3.2.1-7.1-1.3-11.1-.2-.6-1.1-.7-1.4-.1-1.7 3.5-6.4 11.9-13.4 15.2-2.1 1-3.9 2.4-5.2 4.2-1.4 1.9-3.3 4-5.9 6-3.3 2.5-6.6 3.8-9.2 4.6-1.9.6-2.7 2.8-1.6 4.4 1.5 2.3 4 5 7.6 6.2.2.1.3-.1.3-.3-.3-.9-1-2.9-.9-4.3 0-.2.2-.3.4-.1.7.6 2.5 1.9 5.7 1.9.2 0 .3-.3.1-.4-.7-.6-1.8-1.7-2-3.2 0-.2.2-.3.3-.2.8.5 2.6 1.6 5.3 1.6.2 0 .3-.3.1-.4-.7-.5-1.7-1.4-1.6-3.3 0-.1.1-.2.2-.2.9-.1 5-.4 8.9.8.2.1.2.3 0 .4-.8.4-1.7.8-2.6 1.3-2.3 1.3-4 2.7-5.4 4-.4.3-1.1.8-2.1 1.1-1.2.3-2.3.1-3-.2-.2-.1-.4.1-.3.3.3.5.9 1.3 1.6 1.6 1.1.5-1.3 1.2-3.2.8-1.4-.2-2.8-.8-3.4-1-.2-.1-.4.1-.3.3.4 1.1 1.5 3.9 4.6 5 .3.1.5.2.8.2 2.4.5 5-.7 6.1-2.9 0-.1.1-.2.1-.3 0 0 1-1.9 3.2-3.6 2.3-1.8 6.9-3.3 12.6-3.3h.1c2.9 1.7 4.9 5.1 4.5 8.5-.3 2-1.3 3.7-2.3 5.3-3 4.8-10.1 6-15.2 7.5-4.3 1.2-8.7 2.3-13.1 3-3.6.6-7.1 1.1-10.5 2.7-4.5 2.3-8.2 5.9-10.7 10.3-1 1.8-1.8 3.8-2.4 5.8-.2.9.7 1.6 1.5 1.2 9.9-5.6 16.2-3.7 33.5-3C53 87.9 60 80.5 61.9 78c.1-.2.5 0 .4.2-.9 3.2-4 7.5-5.8 9.8-.4.5.1 1.2.7 1 9-3.6 14.3-17.7 15.6-21.5.1-.2.4-.2.4.1.3 4.3-1.5 9.3-2.9 12.6-.3.6.5 1.1.9.6 15.1-17.7 5.7-32 3.2-35.2-.1-.2.1-.4.3-.3 3.9 1.8 7 6.4 8.6 9.4.4.6 1.3.4 1.3-.4-.1-2.5-.6-5.1-1.6-7.4-.8-1.7-1.8-3.2-3.2-4.5-1.4-1.4-3.1-2.4-4.9-3.3-1.2-.6-2.4-1.3-3.6-2.1-.6-.4-1.2-.8-1.7-1.2-.4-.3-.9-.6-1.3-.9-.2-.2 0-.4.2-.4.4.1.8.2 1.1.3.6.2 1.1.3 1.6.5 1.1.4 2.1.8 3.2 1.1 1.2.4 2.4.7 3.6 1 8.5 2.1 13.4-.4 15.7-2.3.4-.4.1-1-.5-.9-4.2.9-11.3-.7-16.4-3-4.4-2.2-10.4-3.5-12.8-3.9-.2 0-.2-.4 0-.4 3-.4 7.2.9 9.7 1.4 6.1 1.3 12.6.8 18.8-3.5 2.9-2 4.2-4.8 4.6-6.8.3-.7-.5-1.2-1-.7zM43.7 30l-.2 1c-.2.7-.6 1.4-1.3 1.7L39.5 34c-.8.4-1.4-.6-.8-1.2l3.7-3.5c.6-.6 1.5-.1 1.3.7z"></path></g></switch></g><!----></svg>